<?xml version="1.0" encoding="UTF-8" standalone="no"?>
<svg
   xmlns:dc="http://purl.org/dc/elements/1.1/"
   xmlns:cc="http://creativecommons.org/ns#"
   xmlns:rdf="http://www.w3.org/1999/02/22-rdf-syntax-ns#"
   xmlns:svg="http://www.w3.org/2000/svg"
   xmlns="http://www.w3.org/2000/svg"
   xmlns:sodipodi="http://sodipodi.sourceforge.net/DTD/sodipodi-0.dtd"
   xmlns:inkscape="http://www.inkscape.org/namespaces/inkscape"
   preserveAspectRatio="xMidYMid"
   viewBox="0 0 60 60"
   id="svg3084"
   version="1.1"
   inkscape:version="0.48.5 r10040"
   sodipodi:docname="arbitrator.svg">
  <metadata
     id="metadata3094">
    <rdf:RDF>
      <cc:Work
         rdf:about="">
        <dc:format>image/svg+xml</dc:format>
        <dc:type
           rdf:resource="http://purl.org/dc/dcmitype/StillImage" />
        <dc:title></dc:title>
      </cc:Work>
    </rdf:RDF>
  </metadata>
  <sodipodi:namedview
     pagecolor="#ffffff"
     bordercolor="#666666"
     borderopacity="1"
     objecttolerance="10"
     gridtolerance="10"
     guidetolerance="10"
     inkscape:pageopacity="0"
     inkscape:pageshadow="2"
     inkscape:window-width="1076"
     inkscape:window-height="656"
     id="namedview3092"
     showgrid="false"
     inkscape:zoom="4"
     inkscape:cx="-0.10846974"
     inkscape:cy="58.549771"
     inkscape:window-x="0"
     inkscape:window-y="0"
     inkscape:window-maximized="0"
     inkscape:current-layer="svg3084"
     showguides="true"
     inkscape:guide-bbox="true">
    <sodipodi:guide
       orientation="0,1"
       position="0,30"
       id="guide3904" />
    <sodipodi:guide
       orientation="1,0"
       position="17.213256,33.213045"
       id="guide3929" />
    <sodipodi:guide
       orientation="1,0"
       position="23.679463,31.184982"
       id="guide3931" />
    <sodipodi:guide
       orientation="0,1"
       position="20.800781,35.46875"
       id="guide3957" />
    <sodipodi:guide
       orientation="0,1"
       position="20.84375,31.597656"
       id="guide3959" />
  </sodipodi:namedview>
  <defs
     id="defs3086">
    <style
       id="style3088">
      .cls-1 {
        fill: #999;
        fill-rule: evenodd;
      }
    </style>
  </defs>
  <path
     style="fill:#000000;fill-rule:evenodd;fill-opacity:1;stroke:#000000;stroke-opacity:1;stroke-width:0;stroke-miterlimit:4;stroke-dasharray:none"
     d="M 30 0 C 13.431 -2.3684758e-15 0 13.431 0 30 C -2.3684758e-15 46.569 13.431 60 30 60 C 46.569 60 60 46.569 60 30 C 60 13.431 46.569 0 30 0 z M 30 5.4375 C 43.566 5.4375 54.5625 16.434 54.5625 30 C 54.5625 43.566 43.566 54.5625 30 54.5625 C 16.434 54.5625 5.4375 43.566 5.4375 30 C 5.4375 16.434 16.434 5.4375 30 5.4375 z "
     id="path3134" />
  <path
     inkscape:connector-curvature="0"
     style="fill:#000000;fill-rule:evenodd"
     d="m 32.744,15.336 0,21.135 c 0,0.945 -0.778,1.711 -1.738,1.711 l -2,0 c -0.96,0 -1.738,-0.766 -1.738,-1.711 l 0,-21.135 c 0,-0.945 0.778,-1.711 1.738,-1.711 l 2,0 c 0.96,0 1.738,0.766 1.738,1.711 z"
     id="path3130" />
  <path
     style="fill:#ffffff;fill-opacity:1;fill-rule:evenodd;stroke:#000000"
     d="m 23.184,41.909 0,-21.127 c 0,-0.944 -0.775,-1.71 -1.731,-1.71 l -1.991,0 c -0.956,0 -1.731,0.766 -1.731,1.71 l 0,21.127 c 0,0.944 0.775,1.71 1.731,1.71 l 1.991,0 c 0.956,0 1.731,-0.766 1.731,-1.71 z"
     id="path3128"
     inkscape:connector-curvature="0"
     inkscape:transform-center-y="7.1186441" />
  <path
     inkscape:connector-curvature="0"
     style="fill:#ffffff;fill-rule:evenodd;stroke:#000000"
     d="m 36.804,41.909 0,-21.127 c 0,-0.944 0.778,-1.71 1.739,-1.71 l 1.999,0 c 0.96,0 1.739,0.766 1.739,1.71 l 0,21.127 c 0,0.944 -0.779,1.71 -1.739,1.71 l -1.999,0 c -0.961,0 -1.739,-0.766 -1.739,-1.71 z"
     id="path3090" />
  <rect
     y="24.533897"
     x="17.213257"
     height="3.8699806"
     width="6.4662061"
     id="rect3933"
     style="fill:#efad00;fill-opacity:1;stroke:#000000;stroke-width:0.50182104;stroke-miterlimit:4;stroke-opacity:0;stroke-dasharray:none" />
  <rect
     y="24.53125"
     x="36.298584"
     height="3.8699806"
     width="6.4662061"
     id="rect3933-9"
     style="fill:#efad00;fill-opacity:1;stroke:#000000;stroke-width:0.50182104;stroke-miterlimit:4;stroke-opacity:0;stroke-dasharray:none" />
</svg>
